<svg xmlns="http://www.w3.org/2000/svg" width="860" height="760" viewBox="0 0 860 760" data-graph-view="XY">
<rect width="860" height="760" fill="white"/>
<text x="24" y="34" font-family="sans-serif" font-size="22" font-weight="bold">ordinary cartesian</text>
<text x="24" y="58" font-family="sans-serif" font-size="13">view=XY; projection selects existing axes only; semantic coordinates are unchanged</text>
<rect x="90" y="85" width="730" height="525" fill="none" stroke="#d0d0d0"/>
<line x1="236.00" y1="85" x2="236.00" y2="610" stroke="#eeeeee"/>
<line x1="90" y1="190.00" x2="820" y2="190.00" stroke="#eeeeee"/>
<line x1="382.00" y1="85" x2="382.00" y2="610" stroke="#eeeeee"/>
<line x1="90" y1="295.00" x2="820" y2="295.00" stroke="#eeeeee"/>
<line x1="528.00" y1="85" x2="528.00" y2="610" stroke="#eeeeee"/>
<line x1="90" y1="400.00" x2="820" y2="400.00" stroke="#eeeeee"/>
<line x1="674.00" y1="85" x2="674.00" y2="610" stroke="#eeeeee"/>
<line x1="90" y1="505.00" x2="820" y2="505.00" stroke="#eeeeee"/>
<path d="M 90.00 610.00 L 333.33 551.67 L 576.67 376.67 L 820.00 85.00" fill="none" stroke="#111111" stroke-width="2.5"/>
<circle class="sample role-primary" cx="90.00" cy="610.00" r="2.4" fill="#111111"/>
<circle class="sample role-primary" cx="333.33" cy="551.67" r="2.4" fill="#111111"/>
<circle class="sample role-primary" cx="576.67" cy="376.67" r="2.4" fill="#111111"/>
<circle class="sample role-primary" cx="820.00" cy="85.00" r="2.4" fill="#111111"/>
<rect class="graph-legend" x="582" y="87" width="230" height="30" fill="white" fill-opacity="0.88" stroke="#dddddd"/>
<line x1="590" y1="100" x2="618" y2="100" stroke="#111111" stroke-width="2.5"/>
<text x="626" y="103" font-family="sans-serif" font-size="11">response</text>
<text x="455" y="660" font-family="sans-serif" font-size="12" text-anchor="middle">dose [INPUT]</text>
<text x="24" y="347.5" font-family="sans-serif" font-size="12">response [OUTPUT]</text>
<text x="90" y="630" font-family="sans-serif" font-size="10">0.00000</text>
<text x="820" y="630" font-family="sans-serif" font-size="10" text-anchor="end">3.00000</text>
<text x="82" y="610" font-family="sans-serif" font-size="10" text-anchor="end">0.00000</text>
<text x="82" y="85" font-family="sans-serif" font-size="10" text-anchor="end">9.00000</text>
<text x="24" y="744" font-family="sans-serif" font-size="11">Reference SVG axis-pair view: only the selected graph axes are projected.</text>
</svg>
