<svg xmlns="http://www.w3.org/2000/svg" width="800" height="450" viewBox="0 0 160 90">
<defs><clipPath id="image-bounds"><rect x="0" y="0" width="160" height="90"/></clipPath></defs>
<g class="base-image" shape-rendering="crispEdges">
<rect x="0" y="0" width="31" height="1" fill="#00000C"/>
<rect x="31" y="0" width="31" height="1" fill="#22341E"/>
<rect x="62" y="0" width="31" height="1" fill="#4E6E41"/>
<rect x="93" y="0" width="31" height="1" fill="#7EA069"/>
<rect x="124" y="0" width="31" height="1" fill="#B2CC94"/>
<rect x="155" y="0" width="5" height="1" fill="#E1EEC2"/>
<rect x="0" y="1" width="31" height="1" fill="#00000C"/>
<rect x="31" y="1" width="31" height="1" fill="#22341E"/>
<rect x="62" y="1" width="31" height="1" fill="#4E6E41"/>
<rect x="93" y="1" width="31" height="1" fill="#7EA069"/>
<rect x="124" y="1" width="31" height="1" fill="#B2CC94"/>
<rect x="155" y="1" width="5" height="1" fill="#E1EEC2"/>
<rect x="0" y="2" width="31" height="1" fill="#00000C"/>
<rect x="31" y="2" width="31" height="1" fill="#22341E"/>
<rect x="62" y="2" width="31" height="1" fill="#4E6E41"/>
<rect x="93" y="2" width="31" height="1" fill="#7EA069"/>
<rect x="124" y="2" width="31" height="1" fill="#B2CC94"/>
<rect x="155" y="2" width="5" height="1" fill="#E1EEC2"/>
<rect x="0" y="3" width="31" height="1" fill="#00000C"/>
<rect x="31" y="3" width="31" height="1" fill="#22341E"/>
<rect x="62" y="3" width="31" height="1" fill="#4E6E41"/>
<rect x="93" y="3" width="31" height="1" fill="#7EA069"/>
<rect x="124" y="3" width="31" height="1" fill="#B2CC94"/>
<rect x="155" y="3" width="5" height="1" fill="#E1EEC2"/>
<rect x="0" y="4" width="31" height="1" fill="#00000C"/>
<rect x="31" y="4" width="31" height="1" fill="#22341E"/>
<rect x="62" y="4" width="31" height="1" fill="#4E6E41"/>
<rect x="93" y="4" width="31" height="1" fill="#7EA069"/>
<rect x="124" y="4" width="31" height="1" fill="#B2CC94"/>
<rect x="155" y="4" width="5" height="1" fill="#E1EEC2"/>
<rect x="0" y="5" width="31" height="1" fill="#00000C"/>
<rect x="31" y="5" width="31" height="1" fill="#22341E"/>
<rect x="62" y="5" width="31" height="1" fill="#4E6E41"/>
<rect x="93" y="5" width="31" height="1" fill="#7EA069"/>
<rect x="124" y="5" width="31" height="1" fill="#B2CC94"/>
<rect x="155" y="5" width="5" height="1" fill="#E1EEC2"/>
<rect x="0" y="6" width="31" height="1" fill="#00000C"/>
<rect x="31" y="6" width="31" height="1" fill="#22341E"/>
<rect x="62" y="6" width="31" height="1" fill="#4E6E41"/>
<rect x="93" y="6" width="31" height="1" fill="#7EA069"/>
<rect x="124" y="6" width="31" height="1" fill="#B2CC94"/>
<rect x="155" y="6" width="5" height="1" fill="#E1EEC2"/>
<rect x="0" y="7" width="31" height="1" fill="#00000C"/>
<rect x="31" y="7" width="31" height="1" fill="#22341E"/>
<rect x="62" y="7" width="31" height="1" fill="#4E6E41"/>
<rect x="93" y="7" width="31" height="1" fill="#7EA069"/>
<rect x="124" y="7" width="31" height="1" fill="#B2CC94"/>
<rect x="155" y="7" width="5" height="1" fill="#E1EEC2"/>
<rect x="0" y="8" width="31" height="1" fill="#00000C"/>
<rect x="31" y="8" width="31" height="1" fill="#22341E"/>
<rect x="62" y="8" width="31" height="1" fill="#4E6E41"/>
<rect x="93" y="8" width="31" height="1" fill="#7EA069"/>
<rect x="124" y="8" width="31" height="1" fill="#B2CC94"/>
<rect x="155" y="8" width="5" height="1" fill="#E1EEC2"/>
<rect x="0" y="9" width="31" height="1" fill="#00000C"/>
<rect x="31" y="9" width="31" height="1" fill="#22341E"/>
<rect x="62" y="9" width="31" height="1" fill="#4E6E41"/>
<rect x="93" y="9" width="31" height="1" fill="#7EA069"/>
<rect x="124" y="9" width="31" height="1" fill="#B2CC94"/>
<rect x="155" y="9" width="5" height="1" fill="#E1EEC2"/>
<rect x="0" y="10" width="31" height="1" fill="#00000C"/>
<rect x="31" y="10" width="31" height="1" fill="#22341E"/>
<rect x="62" y="10" width="31" height="1" fill="#4E6E41"/>
<rect x="93" y="10" width="31" height="1" fill="#7EA069"/>
<rect x="124" y="10" width="31" height="1" fill="#B2CC94"/>
<rect x="155" y="10" width="5" height="1" fill="#E1EEC2"/>
<rect x="0" y="11" width="31" height="1" fill="#00000C"/>
<rect x="31" y="11" width="31" height="1" fill="#22341E"/>
<rect x="62" y="11" width="31" height="1" fill="#4E6E41"/>
<rect x="93" y="11" width="31" height="1" fill="#7EA069"/>
<rect x="124" y="11" width="31" height="1" fill="#B2CC94"/>
<rect x="155" y="11" width="5" height="1" fill="#E1EEC2"/>
<rect x="0" y="12" width="31" height="1" fill="#00000C"/>
<rect x="31" y="12" width="31" height="1" fill="#22341E"/>
<rect x="62" y="12" width="31" height="1" fill="#4E6E41"/>
<rect x="93" y="12" width="31" height="1" fill="#7EA069"/>
<rect x="124" y="12" width="31" height="1" fill="#B2CC94"/>
<rect x="155" y="12" width="5" height="1" fill="#E1EEC2"/>
<rect x="0" y="13" width="31" height="1" fill="#00000C"/>
<rect x="31" y="13" width="31" height="1" fill="#22341E"/>
<rect x="62" y="13" width="31" height="1" fill="#4E6E41"/>
<rect x="93" y="13" width="31" height="1" fill="#7EA069"/>
<rect x="124" y="13" width="31" height="1" fill="#B2CC94"/>
<rect x="155" y="13" width="5" height="1" fill="#E1EEC2"/>
<rect x="0" y="14" width="31" height="1" fill="#00000C"/>
<rect x="31" y="14" width="31" height="1" fill="#22341E"/>
<rect x="62" y="14" width="31" height="1" fill="#4E6E41"/>
<rect x="93" y="14" width="31" height="1" fill="#7EA069"/>
<rect x="124" y="14" width="31" height="1" fill="#B2CC94"/>
<rect x="155" y="14" width="5" height="1" fill="#E1EEC2"/>
<rect x="0" y="15" width="31" height="1" fill="#00000C"/>
<rect x="31" y="15" width="31" height="1" fill="#22341E"/>
<rect x="62" y="15" width="31" height="1" fill="#4E6E41"/>
<rect x="93" y="15" width="31" height="1" fill="#7EA069"/>
<rect x="124" y="15" width="31" height="1" fill="#B2CC94"/>
<rect x="155" y="15" width="5" height="1" fill="#E1EEC2"/>
<rect x="0" y="16" width="31" height="1" fill="#00000C"/>
<rect x="31" y="16" width="31" height="1" fill="#22341E"/>
<rect x="62" y="16" width="31" height="1" fill="#4E6E41"/>
<rect x="93" y="16" width="31" height="1" fill="#7EA069"/>
<rect x="124" y="16" width="31" height="1" fill="#B2CC94"/>
<rect x="155" y="16" width="5" height="1" fill="#E1EEC2"/>
<rect x="0" y="17" width="31" height="1" fill="#00000C"/>
<rect x="31" y="17" width="31" height="1" fill="#22341E"/>
<rect x="62" y="17" width="31" height="1" fill="#4E6E41"/>
<rect x="93" y="17" width="31" height="1" fill="#7EA069"/>
<rect x="124" y="17" width="31" height="1" fill="#B2CC94"/>
<rect x="155" y="17" width="5" height="1" fill="#E1EEC2"/>
<rect x="0" y="18" width="31" height="1" fill="#00000C"/>
<rect x="31" y="18" width="31" height="1" fill="#22341E"/>
<rect x="62" y="18" width="31" height="1" fill="#4E6E41"/>
<rect x="93" y="18" width="31" height="1" fill="#7EA069"/>
<rect x="124" y="18" width="31" height="1" fill="#B2CC94"/>
<rect x="155" y="18" width="5" height="1" fill="#E1EEC2"/>
<rect x="0" y="19" width="31" height="1" fill="#00000C"/>
<rect x="31" y="19" width="31" height="1" fill="#22341E"/>
<rect x="62" y="19" width="31" height="1" fill="#4E6E41"/>
<rect x="93" y="19" width="31" height="1" fill="#7EA069"/>
<rect x="124" y="19" width="31" height="1" fill="#B2CC94"/>
<rect x="155" y="19" width="5" height="1" fill="#E1EEC2"/>
<rect x="0" y="20" width="31" height="1" fill="#00000C"/>
<rect x="31" y="20" width="31" height="1" fill="#22341E"/>
<rect x="62" y="20" width="31" height="1" fill="#4E6E41"/>
<rect x="93" y="20" width="31" height="1" fill="#7EA069"/>
<rect x="124" y="20" width="31" height="1" fill="#B2CC94"/>
<rect x="155" y="20" width="5" height="1" fill="#E1EEC2"/>
<rect x="0" y="21" width="31" height="1" fill="#00000C"/>
<rect x="31" y="21" width="31" height="1" fill="#22341E"/>
<rect x="62" y="21" width="31" height="1" fill="#4E6E41"/>
<rect x="93" y="21" width="31" height="1" fill="#7EA069"/>
<rect x="124" y="21" width="31" height="1" fill="#B2CC94"/>
<rect x="155" y="21" width="5" height="1" fill="#E1EEC2"/>
<rect x="0" y="22" width="31" height="1" fill="#00000C"/>
<rect x="31" y="22" width="31" height="1" fill="#22341E"/>
<rect x="62" y="22" width="31" height="1" fill="#4E6E41"/>
<rect x="93" y="22" width="31" height="1" fill="#7EA069"/>
<rect x="124" y="22" width="31" height="1" fill="#B2CC94"/>
<rect x="155" y="22" width="5" height="1" fill="#E1EEC2"/>
<rect x="0" y="23" width="31" height="1" fill="#22341E"/>
<rect x="31" y="23" width="31" height="1" fill="#4E6E41"/>
<rect x="62" y="23" width="31" height="1" fill="#7EA069"/>
<rect x="93" y="23" width="31" height="1" fill="#B2CC94"/>
<rect x="124" y="23" width="31" height="1" fill="#E1EEC2"/>
<rect x="155" y="23" width="5" height="1" fill="#FFFFEB"/>
<rect x="0" y="24" width="31" height="1" fill="#22341E"/>
<rect x="31" y="24" width="31" height="1" fill="#4E6E41"/>
<rect x="62" y="24" width="31" height="1" fill="#7EA069"/>
<rect x="93" y="24" width="31" height="1" fill="#B2CC94"/>
<rect x="124" y="24" width="31" height="1" fill="#E1EEC2"/>
<rect x="155" y="24" width="5" height="1" fill="#FFFFEB"/>
<rect x="0" y="25" width="31" height="1" fill="#22341E"/>
<rect x="31" y="25" width="31" height="1" fill="#4E6E41"/>
<rect x="62" y="25" width="31" height="1" fill="#7EA069"/>
<rect x="93" y="25" width="31" height="1" fill="#B2CC94"/>
<rect x="124" y="25" width="31" height="1" fill="#E1EEC2"/>
<rect x="155" y="25" width="5" height="1" fill="#FFFFEB"/>
<rect x="0" y="26" width="31" height="1" fill="#22341E"/>
<rect x="31" y="26" width="31" height="1" fill="#4E6E41"/>
<rect x="62" y="26" width="31" height="1" fill="#7EA069"/>
<rect x="93" y="26" width="31" height="1" fill="#B2CC94"/>
<rect x="124" y="26" width="31" height="1" fill="#E1EEC2"/>
<rect x="155" y="26" width="5" height="1" fill="#FFFFEB"/>
<rect x="0" y="27" width="31" height="1" fill="#22341E"/>
<rect x="31" y="27" width="31" height="1" fill="#4E6E41"/>
<rect x="62" y="27" width="31" height="1" fill="#7EA069"/>
<rect x="93" y="27" width="31" height="1" fill="#B2CC94"/>
<rect x="124" y="27" width="31" height="1" fill="#E1EEC2"/>
<rect x="155" y="27" width="5" height="1" fill="#FFFFEB"/>
<rect x="0" y="28" width="31" height="1" fill="#22341E"/>
<rect x="31" y="28" width="31" height="1" fill="#4E6E41"/>
<rect x="62" y="28" width="31" height="1" fill="#7EA069"/>
<rect x="93" y="28" width="31" height="1" fill="#B2CC94"/>
<rect x="124" y="28" width="31" height="1" fill="#E1EEC2"/>
<rect x="155" y="28" width="5" height="1" fill="#FFFFEB"/>
<rect x="0" y="29" width="31" height="1" fill="#22341E"/>
<rect x="31" y="29" width="31" height="1" fill="#4E6E41"/>
<rect x="62" y="29" width="31" height="1" fill="#7EA069"/>
<rect x="93" y="29" width="31" height="1" fill="#B2CC94"/>
<rect x="124" y="29" width="31" height="1" fill="#E1EEC2"/>
<rect x="155" y="29" width="5" height="1" fill="#FFFFEB"/>
<rect x="0" y="30" width="31" height="1" fill="#22341E"/>
<rect x="31" y="30" width="31" height="1" fill="#4E6E41"/>
<rect x="62" y="30" width="31" height="1" fill="#7EA069"/>
<rect x="93" y="30" width="31" height="1" fill="#B2CC94"/>
<rect x="124" y="30" width="31" height="1" fill="#E1EEC2"/>
<rect x="155" y="30" width="5" height="1" fill="#FFFFEB"/>
<rect x="0" y="31" width="31" height="1" fill="#22341E"/>
<rect x="31" y="31" width="31" height="1" fill="#4E6E41"/>
<rect x="62" y="31" width="31" height="1" fill="#7EA069"/>
<rect x="93" y="31" width="31" height="1" fill="#B2CC94"/>
<rect x="124" y="31" width="31" height="1" fill="#E1EEC2"/>
<rect x="155" y="31" width="5" height="1" fill="#FFFFEB"/>
<rect x="0" y="32" width="31" height="1" fill="#22341E"/>
<rect x="31" y="32" width="31" height="1" fill="#4E6E41"/>
<rect x="62" y="32" width="31" height="1" fill="#7EA069"/>
<rect x="93" y="32" width="31" height="1" fill="#B2CC94"/>
<rect x="124" y="32" width="31" height="1" fill="#E1EEC2"/>
<rect x="155" y="32" width="5" height="1" fill="#FFFFEB"/>
<rect x="0" y="33" width="31" height="1" fill="#22341E"/>
<rect x="31" y="33" width="31" height="1" fill="#4E6E41"/>
<rect x="62" y="33" width="31" height="1" fill="#7EA069"/>
<rect x="93" y="33" width="31" height="1" fill="#B2CC94"/>
<rect x="124" y="33" width="31" height="1" fill="#E1EEC2"/>
<rect x="155" y="33" width="5" height="1" fill="#FFFFEB"/>
<rect x="0" y="34" width="31" height="1" fill="#22341E"/>
<rect x="31" y="34" width="31" height="1" fill="#4E6E41"/>
<rect x="62" y="34" width="31" height="1" fill="#7EA069"/>
<rect x="93" y="34" width="31" height="1" fill="#B2CC94"/>
<rect x="124" y="34" width="31" height="1" fill="#E1EEC2"/>
<rect x="155" y="34" width="5" height="1" fill="#FFFFEB"/>
<rect x="0" y="35" width="31" height="1" fill="#22341E"/>
<rect x="31" y="35" width="31" height="1" fill="#4E6E41"/>
<rect x="62" y="35" width="31" height="1" fill="#7EA069"/>
<rect x="93" y="35" width="31" height="1" fill="#B2CC94"/>
<rect x="124" y="35" width="31" height="1" fill="#E1EEC2"/>
<rect x="155" y="35" width="5" height="1" fill="#FFFFEB"/>
<rect x="0" y="36" width="31" height="1" fill="#22341E"/>
<rect x="31" y="36" width="31" height="1" fill="#4E6E41"/>
<rect x="62" y="36" width="31" height="1" fill="#7EA069"/>
<rect x="93" y="36" width="31" height="1" fill="#B2CC94"/>
<rect x="124" y="36" width="31" height="1" fill="#E1EEC2"/>
<rect x="155" y="36" width="5" height="1" fill="#FFFFEB"/>
<rect x="0" y="37" width="31" height="1" fill="#22341E"/>
<rect x="31" y="37" width="31" height="1" fill="#4E6E41"/>
<rect x="62" y="37" width="31" height="1" fill="#7EA069"/>
<rect x="93" y="37" width="31" height="1" fill="#B2CC94"/>
<rect x="124" y="37" width="31" height="1" fill="#E1EEC2"/>
<rect x="155" y="37" width="5" height="1" fill="#FFFFEB"/>
<rect x="0" y="38" width="31" height="1" fill="#22341E"/>
<rect x="31" y="38" width="31" height="1" fill="#4E6E41"/>
<rect x="62" y="38" width="31" height="1" fill="#7EA069"/>
<rect x="93" y="38" width="31" height="1" fill="#B2CC94"/>
<rect x="124" y="38" width="31" height="1" fill="#E1EEC2"/>
<rect x="155" y="38" width="5" height="1" fill="#FFFFEB"/>
<rect x="0" y="39" width="31" height="1" fill="#22341E"/>
<rect x="31" y="39" width="31" height="1" fill="#4E6E41"/>
<rect x="62" y="39" width="31" height="1" fill="#7EA069"/>
<rect x="93" y="39" width="31" height="1" fill="#B2CC94"/>
<rect x="124" y="39" width="31" height="1" fill="#E1EEC2"/>
<rect x="155" y="39" width="5" height="1" fill="#FFFFEB"/>
<rect x="0" y="40" width="31" height="1" fill="#22341E"/>
<rect x="31" y="40" width="31" height="1" fill="#4E6E41"/>
<rect x="62" y="40" width="31" height="1" fill="#7EA069"/>
<rect x="93" y="40" width="31" height="1" fill="#B2CC94"/>
<rect x="124" y="40" width="31" height="1" fill="#E1EEC2"/>
<rect x="155" y="40" width="5" height="1" fill="#FFFFEB"/>
<rect x="0" y="41" width="31" height="1" fill="#22341E"/>
<rect x="31" y="41" width="31" height="1" fill="#4E6E41"/>
<rect x="62" y="41" width="31" height="1" fill="#7EA069"/>
<rect x="93" y="41" width="31" height="1" fill="#B2CC94"/>
<rect x="124" y="41" width="31" height="1" fill="#E1EEC2"/>
<rect x="155" y="41" width="5" height="1" fill="#FFFFEB"/>
<rect x="0" y="42" width="31" height="1" fill="#22341E"/>
<rect x="31" y="42" width="31" height="1" fill="#4E6E41"/>
<rect x="62" y="42" width="31" height="1" fill="#7EA069"/>
<rect x="93" y="42" width="31" height="1" fill="#B2CC94"/>
<rect x="124" y="42" width="31" height="1" fill="#E1EEC2"/>
<rect x="155" y="42" width="5" height="1" fill="#FFFFEB"/>
<rect x="0" y="43" width="31" height="1" fill="#22341E"/>
<rect x="31" y="43" width="31" height="1" fill="#4E6E41"/>
<rect x="62" y="43" width="31" height="1" fill="#7EA069"/>
<rect x="93" y="43" width="31" height="1" fill="#B2CC94"/>
<rect x="124" y="43" width="31" height="1" fill="#E1EEC2"/>
<rect x="155" y="43" width="5" height="1" fill="#FFFFEB"/>
<rect x="0" y="44" width="31" height="1" fill="#22341E"/>
<rect x="31" y="44" width="31" height="1" fill="#4E6E41"/>
<rect x="62" y="44" width="31" height="1" fill="#7EA069"/>
<rect x="93" y="44" width="31" height="1" fill="#B2CC94"/>
<rect x="124" y="44" width="31" height="1" fill="#E1EEC2"/>
<rect x="155" y="44" width="5" height="1" fill="#FFFFEB"/>
<rect x="0" y="45" width="31" height="1" fill="#22341E"/>
<rect x="31" y="45" width="31" height="1" fill="#4E6E41"/>
<rect x="62" y="45" width="31" height="1" fill="#7EA069"/>
<rect x="93" y="45" width="31" height="1" fill="#B2CC94"/>
<rect x="124" y="45" width="31" height="1" fill="#E1EEC2"/>
<rect x="155" y="45" width="5" height="1" fill="#FFFFEB"/>
<rect x="0" y="46" width="31" height="1" fill="#4E6E41"/>
<rect x="31" y="46" width="31" height="1" fill="#7EA069"/>
<rect x="62" y="46" width="31" height="1" fill="#B2CC94"/>
<rect x="93" y="46" width="31" height="1" fill="#E1EEC2"/>
<rect x="124" y="46" width="31" height="1" fill="#FFFFEB"/>
<rect x="155" y="46" width="5" height="1" fill="#F4CEFF"/>
<rect x="0" y="47" width="31" height="1" fill="#4E6E41"/>
<rect x="31" y="47" width="31" height="1" fill="#7EA069"/>
<rect x="62" y="47" width="31" height="1" fill="#B2CC94"/>
<rect x="93" y="47" width="31" height="1" fill="#E1EEC2"/>
<rect x="124" y="47" width="31" height="1" fill="#FFFFEB"/>
<rect x="155" y="47" width="5" height="1" fill="#F4CEFF"/>
<rect x="0" y="48" width="31" height="1" fill="#4E6E41"/>
<rect x="31" y="48" width="31" height="1" fill="#7EA069"/>
<rect x="62" y="48" width="31" height="1" fill="#B2CC94"/>
<rect x="93" y="48" width="31" height="1" fill="#E1EEC2"/>
<rect x="124" y="48" width="31" height="1" fill="#FFFFEB"/>
<rect x="155" y="48" width="5" height="1" fill="#F4CEFF"/>
<rect x="0" y="49" width="31" height="1" fill="#4E6E41"/>
<rect x="31" y="49" width="31" height="1" fill="#7EA069"/>
<rect x="62" y="49" width="31" height="1" fill="#B2CC94"/>
<rect x="93" y="49" width="31" height="1" fill="#E1EEC2"/>
<rect x="124" y="49" width="31" height="1" fill="#FFFFEB"/>
<rect x="155" y="49" width="5" height="1" fill="#F4CEFF"/>
<rect x="0" y="50" width="31" height="1" fill="#4E6E41"/>
<rect x="31" y="50" width="31" height="1" fill="#7EA069"/>
<rect x="62" y="50" width="31" height="1" fill="#B2CC94"/>
<rect x="93" y="50" width="31" height="1" fill="#E1EEC2"/>
<rect x="124" y="50" width="31" height="1" fill="#FFFFEB"/>
<rect x="155" y="50" width="5" height="1" fill="#F4CEFF"/>
<rect x="0" y="51" width="31" height="1" fill="#4E6E41"/>
<rect x="31" y="51" width="31" height="1" fill="#7EA069"/>
<rect x="62" y="51" width="31" height="1" fill="#B2CC94"/>
<rect x="93" y="51" width="31" height="1" fill="#E1EEC2"/>
<rect x="124" y="51" width="31" height="1" fill="#FFFFEB"/>
<rect x="155" y="51" width="5" height="1" fill="#F4CEFF"/>
<rect x="0" y="52" width="31" height="1" fill="#4E6E41"/>
<rect x="31" y="52" width="31" height="1" fill="#7EA069"/>
<rect x="62" y="52" width="31" height="1" fill="#B2CC94"/>
<rect x="93" y="52" width="31" height="1" fill="#E1EEC2"/>
<rect x="124" y="52" width="31" height="1" fill="#FFFFEB"/>
<rect x="155" y="52" width="5" height="1" fill="#F4CEFF"/>
<rect x="0" y="53" width="31" height="1" fill="#4E6E41"/>
<rect x="31" y="53" width="31" height="1" fill="#7EA069"/>
<rect x="62" y="53" width="31" height="1" fill="#B2CC94"/>
<rect x="93" y="53" width="31" height="1" fill="#E1EEC2"/>
<rect x="124" y="53" width="31" height="1" fill="#FFFFEB"/>
<rect x="155" y="53" width="5" height="1" fill="#F4CEFF"/>
<rect x="0" y="54" width="31" height="1" fill="#4E6E41"/>
<rect x="31" y="54" width="31" height="1" fill="#7EA069"/>
<rect x="62" y="54" width="31" height="1" fill="#B2CC94"/>
<rect x="93" y="54" width="31" height="1" fill="#E1EEC2"/>
<rect x="124" y="54" width="31" height="1" fill="#FFFFEB"/>
<rect x="155" y="54" width="5" height="1" fill="#F4CEFF"/>
<rect x="0" y="55" width="31" height="1" fill="#4E6E41"/>
<rect x="31" y="55" width="31" height="1" fill="#7EA069"/>
<rect x="62" y="55" width="31" height="1" fill="#B2CC94"/>
<rect x="93" y="55" width="31" height="1" fill="#E1EEC2"/>
<rect x="124" y="55" width="31" height="1" fill="#FFFFEB"/>
<rect x="155" y="55" width="5" height="1" fill="#F4CEFF"/>
<rect x="0" y="56" width="31" height="1" fill="#4E6E41"/>
<rect x="31" y="56" width="31" height="1" fill="#7EA069"/>
<rect x="62" y="56" width="31" height="1" fill="#B2CC94"/>
<rect x="93" y="56" width="31" height="1" fill="#E1EEC2"/>
<rect x="124" y="56" width="31" height="1" fill="#FFFFEB"/>
<rect x="155" y="56" width="5" height="1" fill="#F4CEFF"/>
<rect x="0" y="57" width="31" height="1" fill="#4E6E41"/>
<rect x="31" y="57" width="31" height="1" fill="#7EA069"/>
<rect x="62" y="57" width="31" height="1" fill="#B2CC94"/>
<rect x="93" y="57" width="31" height="1" fill="#E1EEC2"/>
<rect x="124" y="57" width="31" height="1" fill="#FFFFEB"/>
<rect x="155" y="57" width="5" height="1" fill="#F4CEFF"/>
<rect x="0" y="58" width="31" height="1" fill="#4E6E41"/>
<rect x="31" y="58" width="31" height="1" fill="#7EA069"/>
<rect x="62" y="58" width="31" height="1" fill="#B2CC94"/>
<rect x="93" y="58" width="31" height="1" fill="#E1EEC2"/>
<rect x="124" y="58" width="31" height="1" fill="#FFFFEB"/>
<rect x="155" y="58" width="5" height="1" fill="#F4CEFF"/>
<rect x="0" y="59" width="31" height="1" fill="#4E6E41"/>
<rect x="31" y="59" width="31" height="1" fill="#7EA069"/>
<rect x="62" y="59" width="31" height="1" fill="#B2CC94"/>
<rect x="93" y="59" width="31" height="1" fill="#E1EEC2"/>
<rect x="124" y="59" width="31" height="1" fill="#FFFFEB"/>
<rect x="155" y="59" width="5" height="1" fill="#F4CEFF"/>
<rect x="0" y="60" width="31" height="1" fill="#4E6E41"/>
<rect x="31" y="60" width="31" height="1" fill="#7EA069"/>
<rect x="62" y="60" width="31" height="1" fill="#B2CC94"/>
<rect x="93" y="60" width="31" height="1" fill="#E1EEC2"/>
<rect x="124" y="60" width="31" height="1" fill="#FFFFEB"/>
<rect x="155" y="60" width="5" height="1" fill="#F4CEFF"/>
<rect x="0" y="61" width="31" height="1" fill="#4E6E41"/>
<rect x="31" y="61" width="31" height="1" fill="#7EA069"/>
<rect x="62" y="61" width="31" height="1" fill="#B2CC94"/>
<rect x="93" y="61" width="31" height="1" fill="#E1EEC2"/>
<rect x="124" y="61" width="31" height="1" fill="#FFFFEB"/>
<rect x="155" y="61" width="5" height="1" fill="#F4CEFF"/>
<rect x="0" y="62" width="31" height="1" fill="#4E6E41"/>
<rect x="31" y="62" width="31" height="1" fill="#7EA069"/>
<rect x="62" y="62" width="31" height="1" fill="#B2CC94"/>
<rect x="93" y="62" width="31" height="1" fill="#E1EEC2"/>
<rect x="124" y="62" width="31" height="1" fill="#FFFFEB"/>
<rect x="155" y="62" width="5" height="1" fill="#F4CEFF"/>
<rect x="0" y="63" width="31" height="1" fill="#4E6E41"/>
<rect x="31" y="63" width="31" height="1" fill="#7EA069"/>
<rect x="62" y="63" width="31" height="1" fill="#B2CC94"/>
<rect x="93" y="63" width="31" height="1" fill="#E1EEC2"/>
<rect x="124" y="63" width="31" height="1" fill="#FFFFEB"/>
<rect x="155" y="63" width="5" height="1" fill="#F4CEFF"/>
<rect x="0" y="64" width="31" height="1" fill="#4E6E41"/>
<rect x="31" y="64" width="31" height="1" fill="#7EA069"/>
<rect x="62" y="64" width="31" height="1" fill="#B2CC94"/>
<rect x="93" y="64" width="31" height="1" fill="#E1EEC2"/>
<rect x="124" y="64" width="31" height="1" fill="#FFFFEB"/>
<rect x="155" y="64" width="5" height="1" fill="#F4CEFF"/>
<rect x="0" y="65" width="31" height="1" fill="#4E6E41"/>
<rect x="31" y="65" width="31" height="1" fill="#7EA069"/>
<rect x="62" y="65" width="31" height="1" fill="#B2CC94"/>
<rect x="93" y="65" width="31" height="1" fill="#E1EEC2"/>
<rect x="124" y="65" width="31" height="1" fill="#FFFFEB"/>
<rect x="155" y="65" width="5" height="1" fill="#F4CEFF"/>
<rect x="0" y="66" width="31" height="1" fill="#4E6E41"/>
<rect x="31" y="66" width="31" height="1" fill="#7EA069"/>
<rect x="62" y="66" width="31" height="1" fill="#B2CC94"/>
<rect x="93" y="66" width="31" height="1" fill="#E1EEC2"/>
<rect x="124" y="66" width="31" height="1" fill="#FFFFEB"/>
<rect x="155" y="66" width="5" height="1" fill="#F4CEFF"/>
<rect x="0" y="67" width="31" height="1" fill="#4E6E41"/>
<rect x="31" y="67" width="31" height="1" fill="#7EA069"/>
<rect x="62" y="67" width="31" height="1" fill="#B2CC94"/>
<rect x="93" y="67" width="31" height="1" fill="#E1EEC2"/>
<rect x="124" y="67" width="31" height="1" fill="#FFFFEB"/>
<rect x="155" y="67" width="5" height="1" fill="#F4CEFF"/>
<rect x="0" y="68" width="31" height="1" fill="#4E6E41"/>
<rect x="31" y="68" width="31" height="1" fill="#7EA069"/>
<rect x="62" y="68" width="31" height="1" fill="#B2CC94"/>
<rect x="93" y="68" width="31" height="1" fill="#E1EEC2"/>
<rect x="124" y="68" width="31" height="1" fill="#FFFFEB"/>
<rect x="155" y="68" width="5" height="1" fill="#F4CEFF"/>
<rect x="0" y="69" width="31" height="1" fill="#7EA069"/>
<rect x="31" y="69" width="31" height="1" fill="#B2CC94"/>
<rect x="62" y="69" width="31" height="1" fill="#E1EEC2"/>
<rect x="93" y="69" width="31" height="1" fill="#FFFFEB"/>
<rect x="124" y="69" width="31" height="1" fill="#F4CEFF"/>
<rect x="155" y="69" width="5" height="1" fill="#00000C"/>
<rect x="0" y="70" width="31" height="1" fill="#7EA069"/>
<rect x="31" y="70" width="31" height="1" fill="#B2CC94"/>
<rect x="62" y="70" width="31" height="1" fill="#E1EEC2"/>
<rect x="93" y="70" width="31" height="1" fill="#FFFFEB"/>
<rect x="124" y="70" width="31" height="1" fill="#F4CEFF"/>
<rect x="155" y="70" width="5" height="1" fill="#00000C"/>
<rect x="0" y="71" width="31" height="1" fill="#7EA069"/>
<rect x="31" y="71" width="31" height="1" fill="#B2CC94"/>
<rect x="62" y="71" width="31" height="1" fill="#E1EEC2"/>
<rect x="93" y="71" width="31" height="1" fill="#FFFFEB"/>
<rect x="124" y="71" width="31" height="1" fill="#F4CEFF"/>
<rect x="155" y="71" width="5" height="1" fill="#00000C"/>
<rect x="0" y="72" width="31" height="1" fill="#7EA069"/>
<rect x="31" y="72" width="31" height="1" fill="#B2CC94"/>
<rect x="62" y="72" width="31" height="1" fill="#E1EEC2"/>
<rect x="93" y="72" width="31" height="1" fill="#FFFFEB"/>
<rect x="124" y="72" width="31" height="1" fill="#F4CEFF"/>
<rect x="155" y="72" width="5" height="1" fill="#00000C"/>
<rect x="0" y="73" width="31" height="1" fill="#7EA069"/>
<rect x="31" y="73" width="31" height="1" fill="#B2CC94"/>
<rect x="62" y="73" width="31" height="1" fill="#E1EEC2"/>
<rect x="93" y="73" width="31" height="1" fill="#FFFFEB"/>
<rect x="124" y="73" width="31" height="1" fill="#F4CEFF"/>
<rect x="155" y="73" width="5" height="1" fill="#00000C"/>
<rect x="0" y="74" width="31" height="1" fill="#7EA069"/>
<rect x="31" y="74" width="31" height="1" fill="#B2CC94"/>
<rect x="62" y="74" width="31" height="1" fill="#E1EEC2"/>
<rect x="93" y="74" width="31" height="1" fill="#FFFFEB"/>
<rect x="124" y="74" width="31" height="1" fill="#F4CEFF"/>
<rect x="155" y="74" width="5" height="1" fill="#00000C"/>
<rect x="0" y="75" width="31" height="1" fill="#7EA069"/>
<rect x="31" y="75" width="31" height="1" fill="#B2CC94"/>
<rect x="62" y="75" width="31" height="1" fill="#E1EEC2"/>
<rect x="93" y="75" width="31" height="1" fill="#FFFFEB"/>
<rect x="124" y="75" width="31" height="1" fill="#F4CEFF"/>
<rect x="155" y="75" width="5" height="1" fill="#00000C"/>
<rect x="0" y="76" width="31" height="1" fill="#7EA069"/>
<rect x="31" y="76" width="31" height="1" fill="#B2CC94"/>
<rect x="62" y="76" width="31" height="1" fill="#E1EEC2"/>
<rect x="93" y="76" width="31" height="1" fill="#FFFFEB"/>
<rect x="124" y="76" width="31" height="1" fill="#F4CEFF"/>
<rect x="155" y="76" width="5" height="1" fill="#00000C"/>
<rect x="0" y="77" width="31" height="1" fill="#7EA069"/>
<rect x="31" y="77" width="31" height="1" fill="#B2CC94"/>
<rect x="62" y="77" width="31" height="1" fill="#E1EEC2"/>
<rect x="93" y="77" width="31" height="1" fill="#FFFFEB"/>
<rect x="124" y="77" width="31" height="1" fill="#F4CEFF"/>
<rect x="155" y="77" width="5" height="1" fill="#00000C"/>
<rect x="0" y="78" width="31" height="1" fill="#7EA069"/>
<rect x="31" y="78" width="31" height="1" fill="#B2CC94"/>
<rect x="62" y="78" width="31" height="1" fill="#E1EEC2"/>
<rect x="93" y="78" width="31" height="1" fill="#FFFFEB"/>
<rect x="124" y="78" width="31" height="1" fill="#F4CEFF"/>
<rect x="155" y="78" width="5" height="1" fill="#00000C"/>
<rect x="0" y="79" width="31" height="1" fill="#7EA069"/>
<rect x="31" y="79" width="31" height="1" fill="#B2CC94"/>
<rect x="62" y="79" width="31" height="1" fill="#E1EEC2"/>
<rect x="93" y="79" width="31" height="1" fill="#FFFFEB"/>
<rect x="124" y="79" width="31" height="1" fill="#F4CEFF"/>
<rect x="155" y="79" width="5" height="1" fill="#00000C"/>
<rect x="0" y="80" width="31" height="1" fill="#7EA069"/>
<rect x="31" y="80" width="31" height="1" fill="#B2CC94"/>
<rect x="62" y="80" width="31" height="1" fill="#E1EEC2"/>
<rect x="93" y="80" width="31" height="1" fill="#FFFFEB"/>
<rect x="124" y="80" width="31" height="1" fill="#F4CEFF"/>
<rect x="155" y="80" width="5" height="1" fill="#00000C"/>
<rect x="0" y="81" width="31" height="1" fill="#7EA069"/>
<rect x="31" y="81" width="31" height="1" fill="#B2CC94"/>
<rect x="62" y="81" width="31" height="1" fill="#E1EEC2"/>
<rect x="93" y="81" width="31" height="1" fill="#FFFFEB"/>
<rect x="124" y="81" width="31" height="1" fill="#F4CEFF"/>
<rect x="155" y="81" width="5" height="1" fill="#00000C"/>
<rect x="0" y="82" width="31" height="1" fill="#7EA069"/>
<rect x="31" y="82" width="31" height="1" fill="#B2CC94"/>
<rect x="62" y="82" width="31" height="1" fill="#E1EEC2"/>
<rect x="93" y="82" width="31" height="1" fill="#FFFFEB"/>
<rect x="124" y="82" width="31" height="1" fill="#F4CEFF"/>
<rect x="155" y="82" width="5" height="1" fill="#00000C"/>
<rect x="0" y="83" width="31" height="1" fill="#7EA069"/>
<rect x="31" y="83" width="31" height="1" fill="#B2CC94"/>
<rect x="62" y="83" width="31" height="1" fill="#E1EEC2"/>
<rect x="93" y="83" width="31" height="1" fill="#FFFFEB"/>
<rect x="124" y="83" width="31" height="1" fill="#F4CEFF"/>
<rect x="155" y="83" width="5" height="1" fill="#00000C"/>
<rect x="0" y="84" width="31" height="1" fill="#7EA069"/>
<rect x="31" y="84" width="31" height="1" fill="#B2CC94"/>
<rect x="62" y="84" width="31" height="1" fill="#E1EEC2"/>
<rect x="93" y="84" width="31" height="1" fill="#FFFFEB"/>
<rect x="124" y="84" width="31" height="1" fill="#F4CEFF"/>
<rect x="155" y="84" width="5" height="1" fill="#00000C"/>
<rect x="0" y="85" width="31" height="1" fill="#7EA069"/>
<rect x="31" y="85" width="31" height="1" fill="#B2CC94"/>
<rect x="62" y="85" width="31" height="1" fill="#E1EEC2"/>
<rect x="93" y="85" width="31" height="1" fill="#FFFFEB"/>
<rect x="124" y="85" width="31" height="1" fill="#F4CEFF"/>
<rect x="155" y="85" width="5" height="1" fill="#00000C"/>
<rect x="0" y="86" width="31" height="1" fill="#7EA069"/>
<rect x="31" y="86" width="31" height="1" fill="#B2CC94"/>
<rect x="62" y="86" width="31" height="1" fill="#E1EEC2"/>
<rect x="93" y="86" width="31" height="1" fill="#FFFFEB"/>
<rect x="124" y="86" width="31" height="1" fill="#F4CEFF"/>
<rect x="155" y="86" width="5" height="1" fill="#00000C"/>
<rect x="0" y="87" width="31" height="1" fill="#7EA069"/>
<rect x="31" y="87" width="31" height="1" fill="#B2CC94"/>
<rect x="62" y="87" width="31" height="1" fill="#E1EEC2"/>
<rect x="93" y="87" width="31" height="1" fill="#FFFFEB"/>
<rect x="124" y="87" width="31" height="1" fill="#F4CEFF"/>
<rect x="155" y="87" width="5" height="1" fill="#00000C"/>
<rect x="0" y="88" width="31" height="1" fill="#7EA069"/>
<rect x="31" y="88" width="31" height="1" fill="#B2CC94"/>
<rect x="62" y="88" width="31" height="1" fill="#E1EEC2"/>
<rect x="93" y="88" width="31" height="1" fill="#FFFFEB"/>
<rect x="124" y="88" width="31" height="1" fill="#F4CEFF"/>
<rect x="155" y="88" width="5" height="1" fill="#00000C"/>
<rect x="0" y="89" width="31" height="1" fill="#7EA069"/>
<rect x="31" y="89" width="31" height="1" fill="#B2CC94"/>
<rect x="62" y="89" width="31" height="1" fill="#E1EEC2"/>
<rect x="93" y="89" width="31" height="1" fill="#FFFFEB"/>
<rect x="124" y="89" width="31" height="1" fill="#F4CEFF"/>
<rect x="155" y="89" width="5" height="1" fill="#00000C"/>
</g>
<g class="image-overlays" clip-path="url(#image-bounds)">
<g class="image-layer" data-layer="geometry">
<polygon points="26,18 124,15 139,68 38,75" stroke="#FF0000" stroke-width="1.1" stroke-opacity="0.81" stroke-linecap="round" stroke-linejoin="round" fill="#FF0000" fill-opacity="0.144" fill-rule="nonzero"/>
<polyline points="12,77 42,61 76,54 111,42 150,31" stroke="#FFFF00" stroke-width="1.2" stroke-opacity="0.855" stroke-linecap="round" stroke-linejoin="round" fill="none"/>
<rect x="12.80" y="9.00" width="35.20" height="25.20" rx="180" ry="180" stroke="#FFFF00" stroke-width="1.2" stroke-opacity="0.855" stroke-linecap="round" stroke-linejoin="round" fill="none"/>
<ellipse cx="112" cy="47" rx="16" ry="10" stroke="#FF0000" stroke-width="1.1" stroke-opacity="0.81" stroke-linecap="round" stroke-linejoin="round" fill="#FF0000" fill-opacity="0.144" fill-rule="nonzero"/>
<circle cx="52" cy="40" r="8" stroke="#FFFF00" stroke-width="1.2" stroke-opacity="0.855" stroke-linecap="round" stroke-linejoin="round" fill="none"/>
</g>
<g class="image-layer" data-layer="measurement">
<line x1="20" y1="45" x2="145" y2="45" stroke="#00FFFF" stroke-width="0.9" stroke-opacity="0.765" stroke-linecap="round" stroke-linejoin="round" fill="none"/>
<line x1="80" y1="8" x2="80" y2="83" stroke="#00FFFF" stroke-width="0.9" stroke-opacity="0.765" stroke-linecap="round" stroke-linejoin="round" fill="none"/>
<line x1="76" y1="45" x2="84" y2="45" stroke="#00FFFF" stroke-width="0.9" stroke-opacity="0.765" stroke-linecap="round" stroke-linejoin="round" fill="none"/>
<line x1="80" y1="41" x2="80" y2="49" stroke="#00FFFF" stroke-width="0.9" stroke-opacity="0.765" stroke-linecap="round" stroke-linejoin="round" fill="none"/>
<text x="80.0" y="7.20" font-family="sans-serif" font-size="6" text-anchor="middle" stroke="none" fill="#FFFFFF" fill-opacity="0.9" fill-rule="nonzero">overlay coordinates remain source evidence</text>
</g>
</g>
</svg>
