<svg xmlns="http://www.w3.org/2000/svg" width="760" height="760" viewBox="0 0 760 760">
<rect width="760" height="760" fill="white"/>
<text x="24" y="34" font-family="sans-serif" font-size="22" font-weight="bold">Polar pattern hash: numbers disappear, shape remains</text>
<text x="24" y="58" font-family="sans-serif" font-size="13">centre = source minimum; radius = normalized value; angle = normalized curve progress</text>
<circle cx="380" cy="395" r="70.00" fill="none" stroke="#d0d0d0" stroke-width="1"/>
<circle cx="380" cy="395" r="140.00" fill="none" stroke="#d0d0d0" stroke-width="1"/>
<circle cx="380" cy="395" r="210.00" fill="none" stroke="#d0d0d0" stroke-width="1"/>
<circle cx="380" cy="395" r="280.00" fill="none" stroke="#d0d0d0" stroke-width="1"/>
<line x1="380" y1="395" x2="660.00" y2="395.00" stroke="#dddddd" stroke-width="1"/>
<text x="680.00" y="395.00" font-family="sans-serif" font-size="11" text-anchor="middle">0°</text>
<line x1="380" y1="395" x2="577.99" y2="197.01" stroke="#dddddd" stroke-width="1"/>
<text x="592.13" y="182.87" font-family="sans-serif" font-size="11" text-anchor="middle">45°</text>
<line x1="380" y1="395" x2="380.00" y2="115.00" stroke="#dddddd" stroke-width="1"/>
<text x="380.00" y="95.00" font-family="sans-serif" font-size="11" text-anchor="middle">90°</text>
<line x1="380" y1="395" x2="182.01" y2="197.01" stroke="#dddddd" stroke-width="1"/>
<text x="167.87" y="182.87" font-family="sans-serif" font-size="11" text-anchor="middle">135°</text>
<line x1="380" y1="395" x2="100.00" y2="395.00" stroke="#dddddd" stroke-width="1"/>
<text x="80.00" y="395.00" font-family="sans-serif" font-size="11" text-anchor="middle">180°</text>
<line x1="380" y1="395" x2="182.01" y2="592.99" stroke="#dddddd" stroke-width="1"/>
<text x="167.87" y="607.13" font-family="sans-serif" font-size="11" text-anchor="middle">225°</text>
<line x1="380" y1="395" x2="380.00" y2="675.00" stroke="#dddddd" stroke-width="1"/>
<text x="380.00" y="695.00" font-family="sans-serif" font-size="11" text-anchor="middle">270°</text>
<line x1="380" y1="395" x2="577.99" y2="592.99" stroke="#dddddd" stroke-width="1"/>
<text x="592.13" y="607.13" font-family="sans-serif" font-size="11" text-anchor="middle">315°</text>
<circle cx="380" cy="395" r="4" fill="#111"/>
<text x="388" y="387" font-family="sans-serif" font-size="11">minimum</text>
<path d="M 660.00 395.00 L 637.36 349.62 L 608.03 312.00 L 573.99 283.00 L 537.29 263.01 L 497.99 254.39 L 459.33 257.59 L 425.75 269.29 L 398.91 287.77 L 380.00 311.00 L 367.57 324.53 L 359.78 339.45 L 356.67 354.59 L 358.00 368.78 L 360.93 379.00 L 363.83 385.67 L 368.31 390.74 L 373.87 393.92 L 380.00 395.00 L 373.87 396.08 L 368.31 399.26 L 363.83 404.33 L 360.93 411.00 L 358.00 421.22 L 356.67 435.41 L 359.78 450.55 L 367.57 465.47 L 380.00 479.00 L 398.91 502.23 L 425.75 520.71 L 459.33 532.41 L 497.99 535.61 L 537.29 526.99 L 573.99 507.00 L 608.03 478.00 L 637.36 440.38 Z" fill="none" stroke="#999" stroke-width="5" stroke-dasharray="2 8"/>
<path d="M 660.00 395.00 L 637.36 349.62 L 608.03 312.00 L 573.99 283.00 L 537.29 263.01 L 497.99 254.39 L 459.33 257.59 L 425.75 269.29 L 398.91 287.77 L 380.00 311.00 L 367.57 324.53 L 359.78 339.45 L 356.67 354.59 L 358.00 368.78 L 360.93 379.00 L 363.83 385.67 L 368.31 390.74 L 373.87 393.92 L 380.00 395.00 L 373.87 396.08 L 368.31 399.26 L 363.83 404.33 L 360.93 411.00 L 358.00 421.22 L 356.67 435.41 L 359.78 450.55 L 367.57 465.47 L 380.00 479.00 L 398.91 502.23 L 425.75 520.71 L 459.33 532.41 L 497.99 535.61 L 537.29 526.99 L 573.99 507.00 L 608.03 478.00 L 637.36 440.38 Z" fill="none" stroke="#111" stroke-width="2.5"/>
<path d="M 660.00 395.00 L 637.67 349.57 L 608.62 311.79 L 574.80 282.53 L 538.25 262.21 L 498.69 253.55 L 459.57 257.19 L 425.70 269.44 L 398.77 288.53 L 380.00 312.40 L 367.71 325.30 L 359.84 339.60 L 356.43 354.18 L 357.30 367.95 L 359.98 378.20 L 363.03 385.20 L 367.72 390.53 L 373.57 393.87 L 380.00 395.00 L 374.18 396.03 L 368.89 399.04 L 364.64 403.87 L 361.89 410.20 L 358.60 420.50 L 356.67 435.41 L 359.46 451.42 L 367.25 467.31 L 380.00 481.80 L 399.18 503.77 L 425.86 521.00 L 458.87 531.60 L 496.59 533.94 L 535.39 525.39 L 572.37 506.07 L 606.86 477.57 L 636.75 440.27 Z" fill="none" stroke="#666" stroke-width="2" stroke-dasharray="10 5"/>
<path d="M 650.67 395.00 L 637.36 349.62 L 590.49 318.39 L 541.66 301.67 L 494.40 299.01 L 451.99 309.20 L 426.67 314.17 L 405.54 324.84 L 389.72 339.85 L 380.00 357.67 L 375.68 370.49 L 373.62 377.46 L 373.78 384.22 L 376.00 390.23 L 380.00 395.00 L 358.45 382.56 L 333.22 377.97 L 306.47 382.03 L 280.44 395.00 L 257.45 416.61 L 239.67 446.08 L 229.12 482.11 L 227.47 522.99 L 236.02 566.59 L 283.56 562.05 L 324.67 547.02 L 357.31 523.68 L 380.00 494.56 L 396.75 489.98 L 421.50 509.02 L 453.11 521.63 L 489.99 526.08 L 530.14 520.99 L 565.91 502.33 L 599.26 474.80 L 628.17 438.76 Z" fill="none" stroke="#000" stroke-width="1.5" stroke-dasharray="18 5 3 5"/>
<text x="24" y="706" font-family="sans-serif" font-size="12">solid: base 0..10 | dotted: affine 100..200 (exactly same hash) | dashed: small deformation</text>
<text x="24" y="726" font-family="sans-serif" font-size="12">dash-dot: changed turn structure | centre: source minimum | ring angle: normalized curve progress</text>
<text x="24" y="746" font-family="sans-serif" font-size="12">The affine curve overlays the base: offset and amplitude are evidence, not pattern identity.</text>
</svg>
