<svg xmlns="http://www.w3.org/2000/svg" width="860" height="760" viewBox="0 0 860 760" data-graph-view="TIME_X">
<rect width="860" height="760" fill="white"/>
<text x="24" y="34" font-family="sans-serif" font-size="22" font-weight="bold">Same temporal evidence, four views</text>
<text x="24" y="58" font-family="sans-serif" font-size="13">view=TIME_X; projection selects existing axes only; semantic coordinates are unchanged</text>
<rect x="90" y="85" width="730" height="525" fill="none" stroke="#d0d0d0"/>
<line x1="236.00" y1="85" x2="236.00" y2="610" stroke="#eeeeee"/>
<line x1="90" y1="190.00" x2="820" y2="190.00" stroke="#eeeeee"/>
<line x1="382.00" y1="85" x2="382.00" y2="610" stroke="#eeeeee"/>
<line x1="90" y1="295.00" x2="820" y2="295.00" stroke="#eeeeee"/>
<line x1="528.00" y1="85" x2="528.00" y2="610" stroke="#eeeeee"/>
<line x1="90" y1="400.00" x2="820" y2="400.00" stroke="#eeeeee"/>
<line x1="674.00" y1="85" x2="674.00" y2="610" stroke="#eeeeee"/>
<line x1="90" y1="505.00" x2="820" y2="505.00" stroke="#eeeeee"/>
<path d="M 371.63 610.00 L 382.61 601.00 L 392.59 592.00 L 400.60 583.00 L 406.27 574.00 L 411.45 565.00 L 410.97 556.00 L 404.26 547.00 L 390.24 536.00 L 371.63 518.00 L 354.96 500.00 L 340.70 482.00 L 324.56 467.00 L 296.78 458.00 L 265.34 449.00 L 232.16 440.00 L 201.67 427.00 L 177.04 409.00 L 157.31 391.00 L 144.10 373.00 L 150.44 360.00 L 172.61 351.00 L 199.86 342.00 L 231.08 333.00 L 255.80 318.00 L 284.77 300.00 L 323.66 282.00 L 371.63 264.00 L 426.60 239.00 L 485.61 212.00 L 546.62 185.00 L 607.35 158.00 L 669.15 139.00 L 727.30 121.00 L 778.51 103.00 L 820.00 85.00" fill="none" stroke="#111111" stroke-width="2.5"/>
<circle class="sample role-primary" cx="371.63" cy="610.00" r="2.4" fill="#111111"/>
<circle class="sample role-primary" cx="382.61" cy="601.00" r="2.4" fill="#111111"/>
<circle class="sample role-primary" cx="392.59" cy="592.00" r="2.4" fill="#111111"/>
<circle class="sample role-primary" cx="400.60" cy="583.00" r="2.4" fill="#111111"/>
<circle class="sample role-primary" cx="406.27" cy="574.00" r="2.4" fill="#111111"/>
<circle class="sample role-primary" cx="411.45" cy="565.00" r="2.4" fill="#111111"/>
<circle class="sample role-primary" cx="410.97" cy="556.00" r="2.4" fill="#111111"/>
<circle class="sample role-primary" cx="404.26" cy="547.00" r="2.4" fill="#111111"/>
<circle class="sample role-primary" cx="390.24" cy="536.00" r="2.4" fill="#111111"/>
<circle class="sample role-primary" cx="371.63" cy="518.00" r="2.4" fill="#111111"/>
<circle class="sample role-primary" cx="354.96" cy="500.00" r="2.4" fill="#111111"/>
<circle class="sample role-primary" cx="340.70" cy="482.00" r="2.4" fill="#111111"/>
<circle class="sample role-primary" cx="324.56" cy="467.00" r="2.4" fill="#111111"/>
<circle class="sample role-primary" cx="296.78" cy="458.00" r="2.4" fill="#111111"/>
<circle class="sample role-primary" cx="265.34" cy="449.00" r="2.4" fill="#111111"/>
<circle class="sample role-primary" cx="232.16" cy="440.00" r="2.4" fill="#111111"/>
<circle class="sample role-primary" cx="201.67" cy="427.00" r="2.4" fill="#111111"/>
<circle class="sample role-primary" cx="177.04" cy="409.00" r="2.4" fill="#111111"/>
<circle class="sample role-primary" cx="157.31" cy="391.00" r="2.4" fill="#111111"/>
<circle class="sample role-primary" cx="144.10" cy="373.00" r="2.4" fill="#111111"/>
<circle class="sample role-primary" cx="150.44" cy="360.00" r="2.4" fill="#111111"/>
<circle class="sample role-primary" cx="172.61" cy="351.00" r="2.4" fill="#111111"/>
<circle class="sample role-primary" cx="199.86" cy="342.00" r="2.4" fill="#111111"/>
<circle class="sample role-primary" cx="231.08" cy="333.00" r="2.4" fill="#111111"/>
<circle class="sample role-primary" cx="255.80" cy="318.00" r="2.4" fill="#111111"/>
<circle class="sample role-primary" cx="284.77" cy="300.00" r="2.4" fill="#111111"/>
<circle class="sample role-primary" cx="323.66" cy="282.00" r="2.4" fill="#111111"/>
<circle class="sample role-primary" cx="371.63" cy="264.00" r="2.4" fill="#111111"/>
<circle class="sample role-primary" cx="426.60" cy="239.00" r="2.4" fill="#111111"/>
<circle class="sample role-primary" cx="485.61" cy="212.00" r="2.4" fill="#111111"/>
<circle class="sample role-primary" cx="546.62" cy="185.00" r="2.4" fill="#111111"/>
<circle class="sample role-primary" cx="607.35" cy="158.00" r="2.4" fill="#111111"/>
<circle class="sample role-primary" cx="669.15" cy="139.00" r="2.4" fill="#111111"/>
<circle class="sample role-primary" cx="727.30" cy="121.00" r="2.4" fill="#111111"/>
<circle class="sample role-primary" cx="778.51" cy="103.00" r="2.4" fill="#111111"/>
<circle class="sample role-primary" cx="820.00" cy="85.00" r="2.4" fill="#111111"/>
<path d="M 371.63 610.00 L 383.16 601.00 L 393.64 592.00 L 402.05 583.00 L 408.17 574.00 L 414.83 565.00 L 414.99 556.00 L 407.97 547.00 L 392.11 536.00 L 371.63 518.00 L 356.57 500.00 L 347.31 482.00 L 336.73 467.00 L 309.20 458.00 L 276.30 449.00 L 240.20 440.00 L 204.98 427.00 L 173.93 409.00 L 147.46 391.00 L 127.81 373.00 L 135.31 360.00 L 163.98 351.00 L 196.92 342.00 L 232.55 333.00 L 256.30 318.00 L 283.39 300.00 L 322.09 282.00 L 371.63 264.00 L 429.08 239.00 L 490.13 212.00 L 552.66 185.00 L 614.39 158.00 L 675.56 139.00 L 732.12 121.00 L 781.12 103.00 L 820.00 85.00" fill="none" stroke="#2c5f9e" stroke-width="2.5"/>
<circle class="sample role-primary" cx="371.63" cy="610.00" r="2.4" fill="#2c5f9e"/>
<circle class="sample role-primary" cx="383.16" cy="601.00" r="2.4" fill="#2c5f9e"/>
<circle class="sample role-primary" cx="393.64" cy="592.00" r="2.4" fill="#2c5f9e"/>
<circle class="sample role-primary" cx="402.05" cy="583.00" r="2.4" fill="#2c5f9e"/>
<circle class="sample role-primary" cx="408.17" cy="574.00" r="2.4" fill="#2c5f9e"/>
<circle class="sample role-primary" cx="414.83" cy="565.00" r="2.4" fill="#2c5f9e"/>
<circle class="sample role-primary" cx="414.99" cy="556.00" r="2.4" fill="#2c5f9e"/>
<circle class="sample role-primary" cx="407.97" cy="547.00" r="2.4" fill="#2c5f9e"/>
<circle class="sample role-primary" cx="392.11" cy="536.00" r="2.4" fill="#2c5f9e"/>
<circle class="sample role-primary" cx="371.63" cy="518.00" r="2.4" fill="#2c5f9e"/>
<circle class="sample role-primary" cx="356.57" cy="500.00" r="2.4" fill="#2c5f9e"/>
<circle class="sample role-primary" cx="347.31" cy="482.00" r="2.4" fill="#2c5f9e"/>
<circle class="sample role-primary" cx="336.73" cy="467.00" r="2.4" fill="#2c5f9e"/>
<circle class="sample role-primary" cx="309.20" cy="458.00" r="2.4" fill="#2c5f9e"/>
<circle class="sample role-primary" cx="276.30" cy="449.00" r="2.4" fill="#2c5f9e"/>
<circle class="sample role-primary" cx="240.20" cy="440.00" r="2.4" fill="#2c5f9e"/>
<circle class="sample role-primary" cx="204.98" cy="427.00" r="2.4" fill="#2c5f9e"/>
<circle class="sample role-primary" cx="173.93" cy="409.00" r="2.4" fill="#2c5f9e"/>
<circle class="sample role-primary" cx="147.46" cy="391.00" r="2.4" fill="#2c5f9e"/>
<circle class="sample role-primary" cx="127.81" cy="373.00" r="2.4" fill="#2c5f9e"/>
<circle class="sample role-primary" cx="135.31" cy="360.00" r="2.4" fill="#2c5f9e"/>
<circle class="sample role-primary" cx="163.98" cy="351.00" r="2.4" fill="#2c5f9e"/>
<circle class="sample role-primary" cx="196.92" cy="342.00" r="2.4" fill="#2c5f9e"/>
<circle class="sample role-primary" cx="232.55" cy="333.00" r="2.4" fill="#2c5f9e"/>
<circle class="sample role-primary" cx="256.30" cy="318.00" r="2.4" fill="#2c5f9e"/>
<circle class="sample role-primary" cx="283.39" cy="300.00" r="2.4" fill="#2c5f9e"/>
<circle class="sample role-primary" cx="322.09" cy="282.00" r="2.4" fill="#2c5f9e"/>
<circle class="sample role-primary" cx="371.63" cy="264.00" r="2.4" fill="#2c5f9e"/>
<circle class="sample role-primary" cx="429.08" cy="239.00" r="2.4" fill="#2c5f9e"/>
<circle class="sample role-primary" cx="490.13" cy="212.00" r="2.4" fill="#2c5f9e"/>
<circle class="sample role-primary" cx="552.66" cy="185.00" r="2.4" fill="#2c5f9e"/>
<circle class="sample role-primary" cx="614.39" cy="158.00" r="2.4" fill="#2c5f9e"/>
<circle class="sample role-primary" cx="675.56" cy="139.00" r="2.4" fill="#2c5f9e"/>
<circle class="sample role-primary" cx="732.12" cy="121.00" r="2.4" fill="#2c5f9e"/>
<circle class="sample role-primary" cx="781.12" cy="103.00" r="2.4" fill="#2c5f9e"/>
<circle class="sample role-primary" cx="820.00" cy="85.00" r="2.4" fill="#2c5f9e"/>
<path d="M 675.16 610.00 L 644.92 601.00 L 607.96 592.00 L 566.90 583.00 L 524.43 574.00 L 483.12 565.00 L 445.35 556.00 L 413.16 547.00 L 388.20 536.00 L 371.63 518.00 L 364.10 500.00 L 365.70 482.00 L 369.47 467.00 L 360.48 458.00 L 348.38 449.00 L 334.08 440.00 L 307.80 427.00 L 266.30 409.00 L 225.65 391.00 L 189.44 373.00 L 161.12 360.00 L 143.82 351.00 L 140.23 342.00 L 152.38 333.00 L 185.91 318.00 L 235.69 300.00 L 298.10 282.00 L 371.63 264.00 L 448.94 239.00 L 519.44 212.00 L 581.21 185.00 L 632.70 158.00 L 663.93 139.00 L 679.55 121.00 L 681.30 103.00 L 670.54 85.00" fill="none" stroke="#327a4b" stroke-width="2.5"/>
<circle class="sample role-primary" cx="675.16" cy="610.00" r="2.4" fill="#327a4b"/>
<circle class="sample role-primary" cx="644.92" cy="601.00" r="2.4" fill="#327a4b"/>
<circle class="sample role-primary" cx="607.96" cy="592.00" r="2.4" fill="#327a4b"/>
<circle class="sample role-primary" cx="566.90" cy="583.00" r="2.4" fill="#327a4b"/>
<circle class="sample role-primary" cx="524.43" cy="574.00" r="2.4" fill="#327a4b"/>
<circle class="sample role-primary" cx="483.12" cy="565.00" r="2.4" fill="#327a4b"/>
<circle class="sample role-primary" cx="445.35" cy="556.00" r="2.4" fill="#327a4b"/>
<circle class="sample role-primary" cx="413.16" cy="547.00" r="2.4" fill="#327a4b"/>
<circle class="sample role-primary" cx="388.20" cy="536.00" r="2.4" fill="#327a4b"/>
<circle class="sample role-primary" cx="371.63" cy="518.00" r="2.4" fill="#327a4b"/>
<circle class="sample role-primary" cx="364.10" cy="500.00" r="2.4" fill="#327a4b"/>
<circle class="sample role-primary" cx="365.70" cy="482.00" r="2.4" fill="#327a4b"/>
<circle class="sample role-primary" cx="369.47" cy="467.00" r="2.4" fill="#327a4b"/>
<circle class="sample role-primary" cx="360.48" cy="458.00" r="2.4" fill="#327a4b"/>
<circle class="sample role-primary" cx="348.38" cy="449.00" r="2.4" fill="#327a4b"/>
<circle class="sample role-primary" cx="334.08" cy="440.00" r="2.4" fill="#327a4b"/>
<circle class="sample role-primary" cx="307.80" cy="427.00" r="2.4" fill="#327a4b"/>
<circle class="sample role-primary" cx="266.30" cy="409.00" r="2.4" fill="#327a4b"/>
<circle class="sample role-primary" cx="225.65" cy="391.00" r="2.4" fill="#327a4b"/>
<circle class="sample role-primary" cx="189.44" cy="373.00" r="2.4" fill="#327a4b"/>
<circle class="sample role-primary" cx="161.12" cy="360.00" r="2.4" fill="#327a4b"/>
<circle class="sample role-primary" cx="143.82" cy="351.00" r="2.4" fill="#327a4b"/>
<circle class="sample role-primary" cx="140.23" cy="342.00" r="2.4" fill="#327a4b"/>
<circle class="sample role-primary" cx="152.38" cy="333.00" r="2.4" fill="#327a4b"/>
<circle class="sample role-primary" cx="185.91" cy="318.00" r="2.4" fill="#327a4b"/>
<circle class="sample role-primary" cx="235.69" cy="300.00" r="2.4" fill="#327a4b"/>
<circle class="sample role-primary" cx="298.10" cy="282.00" r="2.4" fill="#327a4b"/>
<circle class="sample role-primary" cx="371.63" cy="264.00" r="2.4" fill="#327a4b"/>
<circle class="sample role-primary" cx="448.94" cy="239.00" r="2.4" fill="#327a4b"/>
<circle class="sample role-primary" cx="519.44" cy="212.00" r="2.4" fill="#327a4b"/>
<circle class="sample role-primary" cx="581.21" cy="185.00" r="2.4" fill="#327a4b"/>
<circle class="sample role-primary" cx="632.70" cy="158.00" r="2.4" fill="#327a4b"/>
<circle class="sample role-primary" cx="663.93" cy="139.00" r="2.4" fill="#327a4b"/>
<circle class="sample role-primary" cx="679.55" cy="121.00" r="2.4" fill="#327a4b"/>
<circle class="sample role-primary" cx="681.30" cy="103.00" r="2.4" fill="#327a4b"/>
<circle class="sample role-primary" cx="670.54" cy="85.00" r="2.4" fill="#327a4b"/>
<path d="M 523.39 610.00 L 521.09 601.00 L 514.24 592.00 L 503.06 583.00 L 491.21 574.00 L 497.06 565.00 L 488.71 556.00 L 465.06 547.00 L 425.85 536.00 L 371.63 518.00 L 303.87 500.00 L 224.82 482.00 L 150.50 467.00 L 112.43 458.00 L 92.62 449.00 L 90.00 440.00 L 102.71 427.00 L 128.23 409.00 L 163.50 391.00 L 205.10 373.00 L 208.65 360.00 L 187.63 351.00 L 178.98 342.00 L 184.89 333.00 L 232.88 318.00 L 290.07 300.00 L 337.00 282.00 L 371.63 264.00 L 392.72 239.00 L 399.81 212.00 L 393.31 185.00 L 374.42 158.00 L 398.21 139.00 L 435.47 121.00 L 477.57 103.00 L 521.09 85.00" fill="none" stroke="#a35d1d" stroke-width="2.5"/>
<circle class="sample role-primary" cx="523.39" cy="610.00" r="2.4" fill="#a35d1d"/>
<circle class="sample role-primary" cx="521.09" cy="601.00" r="2.4" fill="#a35d1d"/>
<circle class="sample role-primary" cx="514.24" cy="592.00" r="2.4" fill="#a35d1d"/>
<circle class="sample role-primary" cx="503.06" cy="583.00" r="2.4" fill="#a35d1d"/>
<circle class="sample role-primary" cx="491.21" cy="574.00" r="2.4" fill="#a35d1d"/>
<circle class="sample role-primary" cx="497.06" cy="565.00" r="2.4" fill="#a35d1d"/>
<circle class="sample role-primary" cx="488.71" cy="556.00" r="2.4" fill="#a35d1d"/>
<circle class="sample role-primary" cx="465.06" cy="547.00" r="2.4" fill="#a35d1d"/>
<circle class="sample role-primary" cx="425.85" cy="536.00" r="2.4" fill="#a35d1d"/>
<circle class="sample role-primary" cx="371.63" cy="518.00" r="2.4" fill="#a35d1d"/>
<circle class="sample role-primary" cx="303.87" cy="500.00" r="2.4" fill="#a35d1d"/>
<circle class="sample role-primary" cx="224.82" cy="482.00" r="2.4" fill="#a35d1d"/>
<circle class="sample role-primary" cx="150.50" cy="467.00" r="2.4" fill="#a35d1d"/>
<circle class="sample role-primary" cx="112.43" cy="458.00" r="2.4" fill="#a35d1d"/>
<circle class="sample role-primary" cx="92.62" cy="449.00" r="2.4" fill="#a35d1d"/>
<circle class="sample role-primary" cx="90.00" cy="440.00" r="2.4" fill="#a35d1d"/>
<circle class="sample role-primary" cx="102.71" cy="427.00" r="2.4" fill="#a35d1d"/>
<circle class="sample role-primary" cx="128.23" cy="409.00" r="2.4" fill="#a35d1d"/>
<circle class="sample role-primary" cx="163.50" cy="391.00" r="2.4" fill="#a35d1d"/>
<circle class="sample role-primary" cx="205.10" cy="373.00" r="2.4" fill="#a35d1d"/>
<circle class="sample role-primary" cx="208.65" cy="360.00" r="2.4" fill="#a35d1d"/>
<circle class="sample role-primary" cx="187.63" cy="351.00" r="2.4" fill="#a35d1d"/>
<circle class="sample role-primary" cx="178.98" cy="342.00" r="2.4" fill="#a35d1d"/>
<circle class="sample role-primary" cx="184.89" cy="333.00" r="2.4" fill="#a35d1d"/>
<circle class="sample role-primary" cx="232.88" cy="318.00" r="2.4" fill="#a35d1d"/>
<circle class="sample role-primary" cx="290.07" cy="300.00" r="2.4" fill="#a35d1d"/>
<circle class="sample role-primary" cx="337.00" cy="282.00" r="2.4" fill="#a35d1d"/>
<circle class="sample role-primary" cx="371.63" cy="264.00" r="2.4" fill="#a35d1d"/>
<circle class="sample role-primary" cx="392.72" cy="239.00" r="2.4" fill="#a35d1d"/>
<circle class="sample role-primary" cx="399.81" cy="212.00" r="2.4" fill="#a35d1d"/>
<circle class="sample role-primary" cx="393.31" cy="185.00" r="2.4" fill="#a35d1d"/>
<circle class="sample role-primary" cx="374.42" cy="158.00" r="2.4" fill="#a35d1d"/>
<circle class="sample role-primary" cx="398.21" cy="139.00" r="2.4" fill="#a35d1d"/>
<circle class="sample role-primary" cx="435.47" cy="121.00" r="2.4" fill="#a35d1d"/>
<circle class="sample role-primary" cx="477.57" cy="103.00" r="2.4" fill="#a35d1d"/>
<circle class="sample role-primary" cx="521.09" cy="85.00" r="2.4" fill="#a35d1d"/>
<rect class="graph-legend" x="582" y="87" width="230" height="84" fill="white" fill-opacity="0.88" stroke="#dddddd"/>
<line x1="590" y1="100" x2="618" y2="100" stroke="#111111" stroke-width="2.5"/>
<text x="626" y="103" font-family="sans-serif" font-size="11">A / PRICE</text>
<line x1="590" y1="118" x2="618" y2="118" stroke="#2c5f9e" stroke-width="2.5"/>
<text x="626" y="121" font-family="sans-serif" font-size="11">A / RELATIVE</text>
<line x1="590" y1="136" x2="618" y2="136" stroke="#327a4b" stroke-width="2.5"/>
<text x="626" y="139" font-family="sans-serif" font-size="11">A / FX</text>
<line x1="590" y1="154" x2="618" y2="154" stroke="#a35d1d" stroke-width="2.5"/>
<text x="626" y="157" font-family="sans-serif" font-size="11">A / VOL</text>
<text x="455" y="660" font-family="sans-serif" font-size="12" text-anchor="middle">x [CYLINDER_X]</text>
<text x="24" y="347.5" font-family="sans-serif" font-size="12">time [TIME]</text>
<text x="90" y="630" font-family="sans-serif" font-size="10">-0.61859</text>
<text x="820" y="630" font-family="sans-serif" font-size="10" text-anchor="end">0.98481</text>
<text x="82" y="610" font-family="sans-serif" font-size="10" text-anchor="end">0.00000</text>
<text x="82" y="85" font-family="sans-serif" font-size="10" text-anchor="end">1.00000</text>
<text x="24" y="744" font-family="sans-serif" font-size="11">Reference SVG axis-pair view: only the selected graph axes are projected.</text>
</svg>
