<svg xmlns="http://www.w3.org/2000/svg" width="980" height="860" viewBox="0 0 980 860">
<rect width="980" height="860" fill="white"/>
<text x="24" y="34" font-family="sans-serif" font-size="22" font-weight="bold">Local transform angle/turn signature: ROT13 vs repeating XOR</text>
<text x="24" y="58" font-family="sans-serif" font-size="13">3D coordinates are supplied evidence; view scaling and projection are presentation only.</text>
<ellipse cx="500" cy="690" rx="235" ry="54.05" fill="none" stroke="#d0d0d0"/>
<ellipse cx="500" cy="190" rx="235" ry="54.05" fill="none" stroke="#d0d0d0"/>
<line x1="265" y1="690" x2="265" y2="190" stroke="#dddddd"/>
<line x1="735" y1="690" x2="735" y2="190" stroke="#dddddd"/>
<text x="745" y="194" font-family="sans-serif" font-size="11">later</text>
<text x="745" y="690" font-family="sans-serif" font-size="11">earlier</text>
<path d="M 500.00 690.00 L 500.00 656.79 L 330.80 601.19 L 300.60 475.71 L 443.60 386.27 L 500.00 320.12 L 612.80 225.40 L 779.17 190.00" fill="none" stroke="#111111" stroke-width="1.5" stroke-dasharray="6 4"/>
<circle class="sample role-secondary" cx="500.00" cy="690.00" r="2.4" fill="#111111"/>
<circle class="sample role-secondary" cx="500.00" cy="656.79" r="2.4" fill="#111111"/>
<circle class="sample role-secondary" cx="330.80" cy="601.19" r="2.4" fill="#111111"/>
<circle class="sample role-secondary" cx="300.60" cy="475.71" r="2.4" fill="#111111"/>
<circle class="sample role-secondary" cx="443.60" cy="386.27" r="2.4" fill="#111111"/>
<circle class="sample role-secondary" cx="500.00" cy="320.12" r="2.4" fill="#111111"/>
<circle class="sample role-secondary" cx="612.80" cy="225.40" r="2.4" fill="#111111"/>
<circle class="sample role-secondary" cx="779.17" cy="190.00" r="2.4" fill="#111111"/>
<line x1="24" y1="735" x2="52" y2="735" stroke="#111111" stroke-width="1.5" stroke-dasharray="6 4"/>
<text x="58" y="739" font-family="sans-serif" font-size="11">ROT13 turn signature / VALUE</text>
<path d="M 500.00 690.00 L 500.00 656.79 L 330.80 601.19 L 300.60 475.71 L 443.60 386.27 L 500.00 320.12 L 612.80 225.40 L 779.17 190.00" fill="none" stroke="#111111" stroke-width="1.5" stroke-dasharray="18 5 3 5"/>
<circle class="sample role-contrast" cx="500.00" cy="690.00" r="2.4" fill="#111111"/>
<circle class="sample role-contrast" cx="500.00" cy="656.79" r="2.4" fill="#111111"/>
<circle class="sample role-contrast" cx="330.80" cy="601.19" r="2.4" fill="#111111"/>
<circle class="sample role-contrast" cx="300.60" cy="475.71" r="2.4" fill="#111111"/>
<circle class="sample role-contrast" cx="443.60" cy="386.27" r="2.4" fill="#111111"/>
<circle class="sample role-contrast" cx="500.00" cy="320.12" r="2.4" fill="#111111"/>
<circle class="sample role-contrast" cx="612.80" cy="225.40" r="2.4" fill="#111111"/>
<circle class="sample role-contrast" cx="779.17" cy="190.00" r="2.4" fill="#111111"/>
<line x1="334" y1="735" x2="362" y2="735" stroke="#111111" stroke-width="1.5" stroke-dasharray="18 5 3 5"/>
<text x="368" y="739" font-family="sans-serif" font-size="11">repeating-XOR turn signature / VALUE</text>
<text x="24" y="842" font-family="sans-serif" font-size="11">Axes: x / y / time. Time remains an explicit coordinate.</text>
</svg>
